<svg width="1024" height="1024" xmlns="http://www.w3.org/2000/svg" p-id="12586" version="1.1" class="icon" t="1699267179710">
 <g>
  <title>Layer 1</title>
  <path id="drawer1" p-id="12587" fill="#ffdab0" d="m561.49333,516.06095l290.53562,0l0,-153.35619l-290.53562,0l0,153.35619z"/>
  <path id="svg_2" p-id="12588" fill="#e7943a" d="m561.49333,534.34667a18.28571,18.28571 0 0 1 -18.28571,-18.28572l0,-153.35619a18.28571,18.28571 0 0 1 18.28571,-18.28571l290.53562,0a18.28571,18.28571 0 0 1 18.28572,18.28571l0,153.35619a18.28571,18.28571 0 0 1 -18.28572,18.28572l-290.53562,0zm272.24991,-36.57143l0,-116.78476l-253.96419,0l0,116.78476l253.96419,0z"/>
  <path id="svg_3" p-id="12589" fill="#e7943a" d="m682.3741,439.38286c0,-13.53143 10.92266,-24.38095 24.38095,-24.38095c13.47047,0 24.38095,10.84952 24.38095,24.38095c0,13.40952 -10.91048,24.38095 -24.38095,24.38095c-13.45829,0 -24.38095,-10.97143 -24.38095,-24.38095"/>
  <path id="drawer2" p-id="12590" fill="#ffdab0" d="m573.68381,669.29524l278.34514,0l0,-153.23429l-290.53562,0l0,141.04381c0,6.82667 5.44915,12.19048 12.19048,12.19048"/>
  <path id="svg_5" p-id="12591" fill="#e7943a" d="m573.68381,687.58095a30.41524,30.41524 0 0 1 -30.47619,-30.47619l0,-141.04381a18.28571,18.28571 0 0 1 18.28571,-18.28571l290.53562,0a18.28571,18.28571 0 0 1 18.28572,18.28571l0,153.23429a18.28571,18.28571 0 0 1 -18.28572,18.28571l-278.34514,0zm260.05943,-36.57143l0,-116.66285l-253.96419,0l0,116.66285l253.96419,0zm-633.90476,-288.30476l0,515.77905c0,24.38095 -36.57143,24.38095 -36.57143,0l0,-515.77905c0,-24.38095 36.57143,-24.38095 36.57143,0z"/>
  <path id="svg_6" p-id="12592" fill="#e7943a" d="m870.31467,362.70476l0,515.77905c0,24.38095 -36.57143,24.38095 -36.57143,0l0,-515.77905c0,-24.38095 36.57143,-24.38095 36.57143,0z"/>
  <path id="svg_7" p-id="12593" fill="#FFFBF0" d="m181.55276,447.79429l379.94057,0l0,-85.08953l-379.94057,0l0,85.08953z"/>
  <path id="svg_8" p-id="12594" fill="#e7943a" d="m181.55276,466.08a18.28571,18.28571 0 0 1 -18.28571,-18.28571l0,-85.08953a18.28571,18.28571 0 0 1 18.28571,-18.28571l379.94057,0a18.28571,18.28571 0 0 1 18.28572,18.28571l0,85.08953a18.28571,18.28571 0 0 1 -18.28572,18.28571l-379.94057,0zm361.65486,-36.57143l0,-48.51809l-343.36914,0l0,48.51809l343.36914,0z"/>
  <path id="svg_9" p-id="12595" fill="#e7943a" d="m682.3741,591.03238c0,-13.53143 10.92266,-24.38095 24.38095,-24.38095c13.47047,0 24.38095,10.84952 24.38095,24.38095c0,13.40952 -10.91048,24.38095 -24.38095,24.38095c-13.45829,0 -24.38095,-10.97143 -24.38095,-24.38095"/>
  <path id="svg_10" p-id="12596" fill="#e7943a" d="m907.81257,344.41905a18.28571,18.28571 0 0 1 0,36.57143l-782.04343,0a18.28571,18.28571 0 0 1 0,-36.57143l782.04343,0z"/>
  <g stroke="null" id="svg_13">
   <path stroke="null" d="m470.18531,250.09242a56.84488,56.84488 0 0 0 -44.33777,-22.73178a5.24342,5.24342 0 0 0 -1.54216,-0.1542a57.13791,57.13791 0 0 0 0,114.2758l0.0617,-0.04626l169.80985,0l0.07711,0.04626a81.47356,81.47356 0 0 0 12.80013,-161.92929a94.79803,94.79803 0 1 0 -181.20658,47.80768" fill="#265bff" p-id="28442" id="svg_11"/>
   <path stroke="null" d="m600.71574,303.97635a7.71094,7.71094 0 0 1 0,-15.42184a26.86482,26.86482 0 1 0 0,-53.71424a7.71094,7.71094 0 0 1 0,-15.42184a42.28668,42.28668 0 1 1 0,84.55794l0,-0.00001z" fill="#e3e2ff" p-id="28443" id="svg_12"/>
  </g>
  <g stroke="null" id="cloud2">
   <path stroke="null" d="m312.08171,228.37494a14.21417,14.21417 0 0 1 -8.38635,-2.70069a40.08395,40.08395 0 0 0 -5.11711,-3.41141a49.89172,49.89172 0 0 0 -24.8748,-6.68066l-32.83472,0a14.21417,14.21417 0 0 1 -12.36633,-7.10708a71.07083,71.07083 0 0 0 -37.52539,-31.41331a14.21417,14.21417 0 0 1 -9.38135,-14.21417a61.54735,61.54735 0 0 1 61.26306,-55.86167a62.54234,62.54234 0 0 1 48.61244,23.31124l10.66063,0a48.18602,48.18602 0 0 1 24.73266,6.68066a49.60743,49.60743 0 0 1 -10.80276,90.82852a12.79276,12.79276 0 0 1 -3.97996,0.56857l-0.00002,-0.00002l0.00001,0.00002zm-63.39518,-41.22109l25.01692,0a77.89363,77.89363 0 0 1 38.9468,10.37634l0.85285,0a21.32125,21.32125 0 0 0 -0.85285,-36.53041a20.4684,20.4684 0 0 0 -10.51849,-2.27426l-18.19413,0a14.21417,14.21417 0 0 1 -12.22419,-6.96493a33.119,33.119 0 0 0 -59.41522,3.55355a100.63631,100.63631 0 0 1 36.38827,31.83974l0.00002,-0.00002l0.00001,0z" fill="#e3e2ff" p-id="28603" id="svg_14"/>
   <path stroke="null" d="m271.42714,343.50968l-109.70842,0a102.39453,102.39453 0 0 1 0,-204.78905a100.78546,100.78546 0 0 1 34.52159,5.99739a102.39453,102.39453 0 0 1 49.44195,37.88598l25.7449,0a80.16029,80.16029 0 0 1 40.08013,10.67828c2.633,1.60906 5.41228,3.36439 8.04529,5.26601a80.45285,80.45285 0 0 1 -48.12542,144.96139l-0.00001,0zm-109.70842,-175.53348a73.13895,73.13895 0 0 0 0,146.2779l109.70842,0a51.19726,51.19726 0 0 0 30.71835,-92.15508a43.88337,43.88337 0 0 0 -5.11973,-3.36439a51.34354,51.34354 0 0 0 -25.59864,-6.87507l-33.79019,0a14.62779,14.62779 0 0 1 -12.72618,-7.31389a73.13895,73.13895 0 0 0 -63.19205,-36.56948l0.00002,0l-0.00001,0z" fill="#8b9cff" p-id="28604" id="svg_15"/>
  </g>
  <g stroke="null" id="cloud3">
   <path stroke="null" d="m965.00224,216.2576l0,-5.43211c-0.15,-58.55688 -47.74263,-105.90309 -106.29951,-105.7531c-43.41409,0.11071 -82.37463,26.67845 -98.33527,67.05684c-47.13907,5.87855 -80.58535,48.85693 -74.7068,95.99957c5.14284,41.24268 39.04268,72.90681 80.53893,75.2318l172.29207,0c36.59627,0.125 66.37113,-29.43915 66.49612,-66.03542c0.09643,-26.52845 -15.63565,-50.55334 -39.98554,-61.06758z" fill="#72bcff" p-id="34416" id="svg_1"/>
   <path stroke="null" d="m958.10942,222.88257l0,-5.43211c4.26427,-56.5676 -38.13554,-105.88167 -94.70314,-110.14235c-44.92122,-3.38927 -86.81032,22.89633 -103.3031,64.81757c-1.45356,0.16429 -2.88213,0.52143 -4.24284,1.06072c-24.42489,53.22119 -1.07856,116.16376 52.13905,140.58508a106.01523,106.01523 0 0 0 68.72826,6.79283a66.95613,66.95613 0 0 0 26.50703,22.92846l35.25342,0c34.37485,-1.37857 61.12115,-30.36415 59.74258,-64.73899c-1,-24.93917 -16.79278,-46.87478 -40.12838,-55.73546l0,-0.13571l0.00714,0l-0.00001,-0.00004z" fill="#72a5e7" p-id="34417" id="svg_4"/>
   <path stroke="null" d="m965.00224,216.2576l0,-5.43211c0.03929,-58.55688 -47.39621,-106.06023 -105.95309,-106.09952c-58.55688,-0.03929 -106.06023,47.39978 -106.09952,105.95666s47.39621,106.06023 105.95309,106.09952c8.23568,0.00714 16.44278,-0.94642 24.4606,-2.83927c20.31062,30.44272 61.45687,38.66054 91.89959,18.34992s38.66054,-61.45687 18.34992,-91.90316a66.26648,66.26648 0 0 0 -29.00702,-24.12489l0.39643,0l0,-0.00714z" fill="#acd6ff" p-id="34418" id="svg_16"/>
  </g>
 </g>

</svg>